<?xml version="1.0" encoding="UTF-8" standalone="no"?>
<svg
   xmlns:dc="http://purl.org/dc/elements/1.1/"
   xmlns:cc="http://creativecommons.org/ns#"
   xmlns:rdf="http://www.w3.org/1999/02/22-rdf-syntax-ns#"
   xmlns:svg="http://www.w3.org/2000/svg"
   xmlns="http://www.w3.org/2000/svg"
   viewBox="0 0 141.09866 140.57333"
   height="140.57333"
   width="141.09866"
   xml:space="preserve"
   id="svg2"
   version="1.1"><metadata
     id="metadata8"><rdf:RDF><cc:Work
         rdf:about=""><dc:format>image/svg+xml</dc:format><dc:type
           rdf:resource="http://purl.org/dc/dcmitype/StillImage" /><dc:title></dc:title></cc:Work></rdf:RDF></metadata><defs
     id="defs6"><clipPath
       id="clipPath20"
       clipPathUnits="userSpaceOnUse"><path
         id="path18"
         d="M 0,0 H 350 V 106 H 0 Z" /></clipPath></defs><g
     transform="matrix(1.3333333,0,0,-1.3333333,-110.10448,139.36072)"
     id="g10"><g
       transform="translate(82.578365,-0.90745456)"
       id="g4224"><path
         id="path22"
         style="fill:#1a3665;fill-opacity:1;fill-rule:nonzero;stroke:none"
         d="m 23.281,105.428 h 59.262 c 12.859,0 23.281,-10.382999 23.281,-23.194999 v -59.039 c 0,-12.809 -10.422,-23.196 -23.281,-23.196 H 23.281 c -12.859,0 -23.281,10.387 -23.281,23.196 v 59.039 C 0,95.045001 10.422,105.428 23.281,105.428" /><path
         id="path24"
         style="fill:#9fc9eb;fill-opacity:1;fill-rule:nonzero;stroke:none"
         d="m 23.281,101.209 c -10.519,0 -19.047,-8.495999 -19.047,-18.975999 v -59.039 c 0,-10.481 8.528,-18.977 19.047,-18.977 h 59.262 c 10.523,0 19.051,8.496 19.051,18.977 v 59.039 c 0,10.48 -8.528,18.975999 -19.051,18.975999 H 23.281" /><path
         id="path26"
         style="fill:#ffffff;fill-opacity:1;fill-rule:nonzero;stroke:none"
         d="m 27.516,37.951001 c -5.844,0 -10.582,-4.718 -10.582,-10.539 0,-5.824 4.738,-10.543 10.582,-10.543 5.843,0 10.582,4.719 10.582,10.543 0,5.821 -4.739,10.539 -10.582,10.539 z m 0,25.305 c -5.844,0 -10.582,-4.719 -10.582,-10.543 0,-5.82 4.738,-10.543 10.582,-10.543 5.843,0 10.582,4.723 10.582,10.543 0,5.824 -4.739,10.543 -10.582,10.543 z m 0,25.305 c -5.844,0 -10.582,-4.723 -10.582,-10.543 0,-5.824 4.738,-10.543 10.582,-10.543 5.843,0 10.582,4.719 10.582,10.543 0,5.82 -4.739,10.543 -10.582,10.543 z m 25.398,0 c -5.848,0 -10.582,-4.723 -10.582,-10.543 0,-5.824 4.734,-10.543 10.582,-10.543 5.844,0 10.582,4.719 10.582,10.543 0,5.82 -4.738,10.543 -10.582,10.543 z m 25.398,0 c -5.843,0 -10.585,-4.723 -10.585,-10.543 0,-5.824 4.742,-10.543 10.585,-10.543 5.844,0 10.583,4.719 10.583,10.543 0,5.82 -4.739,10.543 -10.583,10.543 z m 0,-25.305 c -5.843,0 -10.585,-4.719 -10.585,-10.543 0,-5.82 4.742,-10.543 10.585,-10.543 5.844,0 10.583,4.723 10.583,10.543 0,5.824 -4.739,10.543 -10.583,10.543 z m -40.214,-0.211 v 4.641 c -0.879,-0.891 -1.868,-1.672 -2.95,-2.32 1.082,-0.649 2.071,-1.43 2.95,-2.321 z m 29.843,0.211 H 52.914 c -4.144,0 -7.894,1.695 -10.582,4.43 v -14.973 c 0,-4.129 -1.703,-7.863 -4.449,-10.543 h 15.031 c 2.82,0 2.82,-4.219 0,-4.219 H 37.883 c 2.746,-2.675 4.449,-6.41 4.449,-10.539 0,-8.152 -6.637,-14.761 -14.816,-14.761 -8.184,0 -14.817,6.609 -14.817,14.761 0,5.368 2.879,10.067 7.18,12.649 -4.301,2.586 -7.18,7.285 -7.18,12.652 0,5.371 2.879,10.07 7.18,12.653 -4.301,2.582 -7.18,7.281 -7.18,12.652 0,8.152 6.633,14.758 14.817,14.758 5.386,0 10.105,-2.868 12.699,-7.153 2.59,4.285 7.308,7.153 12.699,7.153 5.387,0 10.106,-2.868 12.699,-7.153 2.59,4.285 7.309,7.153 12.699,7.153 8.18,0 14.817,-6.606 14.817,-14.758 0,-5.371 -2.879,-10.07 -7.184,-12.652 4.305,-2.583 7.184,-7.282 7.184,-12.653 0,-8.152 -6.637,-14.762 -14.817,-14.762 -8.183,0 -14.816,6.61 -14.816,14.762 0,4.129 1.703,7.863 4.445,10.543 z m -4.66,4.219 h 4.66 c -0.894,0.875 -1.679,1.859 -2.328,2.933 -0.652,-1.074 -1.437,-2.058 -2.332,-2.933" /><path
         d="m 88.895,14.760107 v 37.952797 c 0,2.812388 4.234,2.812388 4.234,0 V 14.760107 c 0,-2.812389 -4.234,-2.812389 -4.234,0 z"
         style="fill:none;stroke:#ffffff;stroke-width:3.91262555;stroke-linecap:butt;stroke-linejoin:miter;stroke-miterlimit:3.86400008;stroke-dasharray:none;stroke-opacity:1"
         id="path28" /><path
         id="path32"
         style="fill:#1a3665;fill-opacity:1;fill-rule:nonzero;stroke:none"
         d="m 88.895,14.760001 v 37.953 c 0,2.813 4.234,2.813 4.234,0 v -37.953 c 0,-2.812 -4.234,-2.812 -4.234,0" /><path
         d="m 78.312,42.169685 c 8.18,0 14.817,-6.605078 14.817,-14.757318 0,-8.15224 -6.637,-14.761303 -14.817,-14.761303 -8.183,0 -14.816,6.609063 -14.816,14.761303 v 25.300537 c 0,2.812388 4.231,2.812388 4.231,0 V 37.740398 c 2.691,2.734681 6.437,4.429287 10.585,4.429287 z m 0,-4.218084 c -5.843,0 -10.585,-4.719194 -10.585,-10.539234 0,-5.824025 4.742,-10.543218 10.585,-10.543218 5.844,0 10.583,4.719193 10.583,10.543218 0,5.82004 -4.739,10.539234 -10.583,10.539234 z"
         style="fill:none;stroke:#ffffff;stroke-width:3.91262555;stroke-linecap:butt;stroke-linejoin:miter;stroke-miterlimit:3.86400008;stroke-dasharray:none;stroke-opacity:1"
         id="path34" /><path
         id="path38"
         style="fill:#1a3665;fill-opacity:1;fill-rule:nonzero;stroke:none"
         d="m 78.312,42.170001 c 8.18,0 14.817,-6.605 14.817,-14.758 0,-8.152 -6.637,-14.761 -14.817,-14.761 -8.183,0 -14.816,6.609 -14.816,14.761 v 25.301 c 0,2.813 4.231,2.813 4.231,0 v -14.973 c 2.691,2.735 6.437,4.43 10.585,4.43 z m 0,-4.219 c -5.843,0 -10.585,-4.718 -10.585,-10.539 0,-5.824 4.742,-10.543 10.585,-10.543 5.844,0 10.583,4.719 10.583,10.543 0,5.821 -4.739,10.539 -10.583,10.539" /><path
         d="M 67.289,23.829885 C 65.684,17.4121 59.859,12.651064 52.914,12.651064 c -8.184,0 -14.816,6.609063 -14.816,14.761303 0,8.15224 6.632,14.757318 14.816,14.757318 6.945,0 12.77,-4.757051 14.375,-11.17882 0.684,-2.730697 -3.426,-3.746862 -4.105,-1.020151 -1.149,4.585698 -5.313,7.980887 -10.27,7.980887 -5.848,0 -10.582,-4.719194 -10.582,-10.539234 0,-5.824025 4.734,-10.543218 10.582,-10.543218 4.957,0 9.121,3.395189 10.27,7.984871 0.679,2.726712 4.789,1.706561 4.105,-1.024135 z"
         style="fill:none;stroke:#ffffff;stroke-width:3.91262555;stroke-linecap:butt;stroke-linejoin:miter;stroke-miterlimit:3.86400008;stroke-dasharray:none;stroke-opacity:1"
         id="path40" /><path
         id="path44"
         style="fill:#1a3665;fill-opacity:1;fill-rule:nonzero;stroke:none"
         d="m 67.289,23.830001 c -1.605,-6.418 -7.43,-11.179 -14.375,-11.179 -8.184,0 -14.816,6.609 -14.816,14.761 0,8.153 6.632,14.758 14.816,14.758 6.945,0 12.77,-4.758 14.375,-11.18 0.684,-2.726 -3.426,-3.746 -4.105,-1.019 -1.149,4.586 -5.313,7.98 -10.27,7.98 -5.848,0 -10.582,-4.718 -10.582,-10.539 0,-5.824 4.734,-10.543 10.582,-10.543 4.957,0 9.121,3.395 10.27,7.985 0.679,2.726 4.789,1.707 4.105,-1.024" /></g></g></svg>